<svg id="Layer_1" data-name="Layer 1" xmlns="http://www.w3.org/2000/svg" viewBox="0 0 457.28 507.28"><defs><style>.cls-1,.cls-3,.cls-6{fill:none;}.cls-1,.cls-2,.cls-3,.cls-4,.cls-6{stroke:#231f20;stroke-miterlimit:10;}.cls-2{fill:#808285;}.cls-3,.cls-6{stroke-dasharray:5;}.cls-4{fill:#939598;}.cls-5,.cls-8{font-size:20px;fill:#231f20;font-family:MyriadPro-Regular, Myriad Pro;}.cls-6{stroke-width:0.5px;}.cls-7{letter-spacing:0.01em;}.cls-8{letter-spacing:-0.02em;}.cls-9{letter-spacing:0em;}.cls-10{letter-spacing:-0.03em;}</style></defs><path class="cls-1" d="M264,485.47c-73.33-53.71-123.23-110.33-134-144.62V289.67s-.83-20.52,0-40.85c11.15-33.4,62-87.14,134-138.91" transform="translate(-58.17 -52.22)"/><rect class="cls-1" x="71.83" y="195.78" width="36" height="93"/><rect class="cls-1" x="82.83" y="214.82" width="310" height="54.13"/><rect class="cls-2" x="215.83" y="214.82" width="177" height="54.13"/><line class="cls-3" x1="205.83" y1="37.27" x2="205.83" y2="433.24"/><rect class="cls-4" x="371.83" y="198.16" width="33" height="86.06"/><rect class="cls-4" x="327.83" y="235.96" width="16" height="33"/><line class="cls-1" x1="69.83" y1="506.78" x2="404.83" y2="506.78"/><text class="cls-5" transform="translate(158.07 500.7)">P</text><line class="cls-6" x1="69.83" y1="0.5" x2="69.83" y2="506.78"/><line class="cls-6" x1="404.83" y1="245.47" x2="404.83" y2="507.05"/><line class="cls-1" x1="217.83" y1="479.53" x2="404.83" y2="479.53"/><line class="cls-6" x1="217.83" y1="265.21" x2="217.83" y2="479.53"/><line class="cls-6" x1="335.83" y1="0.5" x2="335.83" y2="214.82"/><line class="cls-1" x1="69.83" y1="0.5" x2="335.83" y2="0.5"/><text class="cls-5" transform="translate(258.94 21.67)">λg</text><text class="cls-5" transform="translate(295.66 470.75)">3/4 λg</text><line class="cls-1" x1="69.83" y1="37.27" x2="205.83" y2="37.27"/><text class="cls-5" transform="translate(124.32 29.09)">dw</text><line class="cls-6" x1="205.83" y1="57.69" x2="41.6" y2="57.69"/><line class="cls-6" x1="201.84" y1="433.24" x2="37.61" y2="433.24"/><line class="cls-1" x1="37.61" y1="433.24" x2="37.61" y2="57.69"/><text class="cls-5" transform="translate(0 235.65)"><tspan class="cls-7">D</tspan><tspan x="13.6" y="0">w</tspan></text><line class="cls-6" x1="433" y1="214.82" x2="374.05" y2="214.82"/><line class="cls-6" x1="434" y1="268.2" x2="375.05" y2="268.2"/><line class="cls-1" x1="434" y1="268.2" x2="434" y2="214.82"/><text class="cls-5" transform="translate(443.96 248.47)">D</text><text class="cls-8" transform="translate(315.81 293.1)">W<tspan class="cls-9" x="16.6" y="0">i-</tspan><tspan class="cls-10" x="27.42" y="0">F</tspan><tspan class="cls-9" x="36.64" y="0">i</tspan></text></svg>